<svg width="399" height="72" viewBox="0 0 399 72" fill="none" xmlns="http://www.w3.org/2000/svg">
<path d="M353.664 44.873C353.664 44.3197 353.729 43.7012 353.859 43.0176C353.99 42.334 354.055 41.5853 354.055 40.7715C354.055 40.2181 353.811 39.7949 353.322 39.502C352.867 39.209 352.346 38.8835 351.76 38.5254C351.174 38.1673 350.637 37.7116 350.148 37.1582C349.693 36.6048 349.465 35.8073 349.465 34.7656C349.465 34.0169 349.66 33.2682 350.051 32.5195C350.474 31.7708 351.076 31.0872 351.857 30.4688C353.778 29.0365 355.764 27.7507 357.814 26.6113C359.898 25.472 361.965 24.5117 364.016 23.7305C366.099 22.9492 368.15 22.347 370.168 21.9238C372.186 21.5007 374.123 21.2891 375.979 21.2891C379.104 21.2891 382.033 21.875 384.768 23.0469C387.535 24.1862 389.927 25.765 391.945 27.7832C393.996 29.7689 395.607 32.1126 396.779 34.8145C397.984 37.4837 398.586 40.3483 398.586 43.4082C398.586 46.403 397.951 49.2513 396.682 51.9531C395.445 54.6224 393.768 56.9661 391.652 58.9844C389.536 61.0026 387.046 62.5977 384.182 63.7695C381.35 64.974 378.355 65.5762 375.197 65.5762C372.105 65.5762 369.24 65.0553 366.604 64.0137C363.967 62.972 361.688 61.5397 359.768 59.7168C357.847 57.8613 356.35 55.6803 355.275 53.1738C354.201 50.6348 353.664 47.8678 353.664 44.873ZM376.271 56.7871C377.639 56.7871 379.055 56.5104 380.52 55.957C381.984 55.4036 383.319 54.6061 384.523 53.5645C385.76 52.4902 386.77 51.1882 387.551 49.6582C388.365 48.1283 388.771 46.403 388.771 44.4824C388.771 42.5293 388.413 40.7064 387.697 39.0137C386.981 37.321 385.988 35.8561 384.719 34.6191C383.482 33.3496 382.001 32.3568 380.275 31.6406C378.583 30.9245 376.743 30.5664 374.758 30.5664C371.145 30.5664 368.378 31.5104 366.457 33.3984C364.536 35.2539 363.576 38.1185 363.576 41.9922C363.576 44.1081 363.885 46.0775 364.504 47.9004C365.155 49.6908 366.05 51.2533 367.189 52.5879C368.329 53.89 369.663 54.9154 371.193 55.6641C372.756 56.4128 374.449 56.7871 376.271 56.7871Z" fill="#000000"/>
<path d="M338.674 11.2793C337.73 11.2793 336.835 11.1491 335.988 10.8887C335.174 10.5957 334.458 10.2051 333.84 9.7168C333.254 9.19596 332.782 8.59375 332.424 7.91016C332.066 7.22656 331.887 6.47786 331.887 5.66406C331.887 4.29688 332.424 3.1901 333.498 2.34375C334.605 1.4974 336.07 1.07422 337.893 1.07422C338.739 1.07422 339.553 1.23698 340.334 1.5625C341.115 1.85547 341.799 2.26237 342.385 2.7832C343.003 3.30404 343.492 3.92253 343.85 4.63867C344.208 5.32227 344.387 6.03841 344.387 6.78711C344.387 8.18685 343.866 9.29362 342.824 10.1074C341.815 10.8887 340.432 11.2793 338.674 11.2793ZM331.984 26.1719C331.984 25.0326 332.473 24.1048 333.449 23.3887C334.458 22.64 335.777 22.2656 337.404 22.2656C340.334 22.2656 341.896 23.2747 342.092 25.293C342.222 26.6927 342.352 28.2715 342.482 30.0293C342.645 31.7871 342.792 33.6589 342.922 35.6445C343.085 37.5977 343.215 39.6322 343.312 41.748C343.443 43.8314 343.557 45.8984 343.654 47.9492C343.752 49.9674 343.833 51.9206 343.898 53.8086C343.964 55.6966 343.996 57.4219 343.996 58.9844C343.996 60.612 343.41 61.8327 342.238 62.6465C341.099 63.4603 339.423 63.8672 337.209 63.8672C336.2 63.8672 335.402 63.623 334.816 63.1348C334.263 62.679 333.986 61.9954 333.986 61.084C333.986 56.5918 333.872 52.3926 333.645 48.4863C333.449 44.5475 333.221 41.0482 332.961 37.9883C332.733 34.9284 332.505 32.3893 332.277 30.3711C332.082 28.3203 331.984 26.9206 331.984 26.1719Z" fill="#000000"/>
<path d="M306.445 18.4082C308.236 18.4082 309.961 18.6849 311.621 19.2383C313.281 19.7917 314.746 20.5566 316.016 21.5332C317.285 22.5098 318.294 23.6816 319.043 25.0488C319.824 26.416 320.215 27.9297 320.215 29.5898C320.215 30.2734 320.052 30.9408 319.727 31.5918C319.434 32.2103 319.027 32.7637 318.506 33.252C317.985 33.7077 317.383 34.082 316.699 34.375C316.048 34.6354 315.365 34.7656 314.648 34.7656C314.583 34.7656 314.518 34.7819 314.453 34.8145C314.421 34.8145 314.372 34.8145 314.307 34.8145C314.242 34.847 314.176 34.8633 314.111 34.8633L314.307 38.7695C314.437 43.4245 315.088 46.8262 316.26 48.9746C317.464 51.123 319.027 52.1973 320.947 52.1973C321.631 52.1973 322.233 52.1322 322.754 52.002C323.307 51.8717 323.812 51.7253 324.268 51.5625C324.756 51.3672 325.212 51.2044 325.635 51.0742C326.058 50.944 326.481 50.8789 326.904 50.8789C327.653 50.8789 328.304 51.2044 328.857 51.8555C329.443 52.5065 329.736 53.2878 329.736 54.1992C329.736 55.1107 329.378 56.0221 328.662 56.9336C327.979 57.8451 327.067 58.6751 325.928 59.4238C324.788 60.14 323.503 60.7259 322.07 61.1816C320.638 61.6374 319.189 61.8652 317.725 61.8652C315.186 61.8652 312.956 60.8236 311.035 58.7402C309.115 56.6243 307.747 53.5319 306.934 49.4629C306.738 48.8118 306.478 48.4863 306.152 48.4863C305.762 48.4863 305.42 48.6816 305.127 49.0723C301.904 53.1413 298.47 56.2012 294.824 58.252C291.178 60.2702 287.581 61.2793 284.033 61.2793C282.373 61.2793 280.876 61.0352 279.541 60.5469C278.206 60.0586 277.067 59.375 276.123 58.4961C275.212 57.5846 274.495 56.4941 273.975 55.2246C273.486 53.9225 273.242 52.474 273.242 50.8789C273.242 48.6328 273.73 46.2728 274.707 43.7988C275.716 41.3249 277.067 38.8835 278.76 36.4746C280.452 34.0658 282.406 31.7708 284.619 29.5898C286.865 27.4089 289.209 25.4883 291.65 23.8281C294.124 22.168 296.631 20.8496 299.17 19.873C301.709 18.8965 304.134 18.4082 306.445 18.4082ZM304.834 35.3027C305.42 34.196 305.957 33.3984 306.445 32.9102C306.934 32.3893 307.633 32.0475 308.545 31.8848C309.261 31.7871 309.619 31.5592 309.619 31.2012C309.619 30.9408 309.521 30.6641 309.326 30.3711C308.708 29.5247 308.057 28.7923 307.373 28.1738C306.689 27.5228 305.778 27.1973 304.639 27.1973C303.402 27.1973 302.018 27.5553 300.488 28.2715C298.958 28.9876 297.396 29.9479 295.801 31.1523C294.238 32.3242 292.692 33.6751 291.162 35.2051C289.665 36.7025 288.33 38.2487 287.158 39.8438C285.986 41.4388 285.042 43.0176 284.326 44.5801C283.61 46.1426 283.252 47.5423 283.252 48.7793C283.252 49.8861 283.545 50.7487 284.131 51.3672C284.749 51.9857 285.579 52.2949 286.621 52.2949C289.29 52.2949 292.204 50.8789 295.361 48.0469C298.519 45.2148 301.676 40.9668 304.834 35.3027Z" fill="#000000"/>
<path d="M253.713 34.4727C253.322 34.4727 252.98 34.7819 252.688 35.4004C251.451 37.8092 250.132 39.9902 248.732 41.9434C247.365 43.8965 245.982 45.5566 244.582 46.9238C243.182 48.291 241.799 49.349 240.432 50.0977C239.064 50.8138 237.779 51.1719 236.574 51.1719C235.402 51.1719 234.312 50.9277 233.303 50.4395C232.326 49.9186 231.252 48.9583 230.08 47.5586C228.941 46.1589 227.622 44.222 226.125 41.748C224.66 39.2741 222.854 36.0514 220.705 32.0801C220.347 31.429 219.973 30.957 219.582 30.6641C219.224 30.3385 218.898 30.1758 218.605 30.1758C218.182 30.1758 217.792 30.6315 217.434 31.543C217.076 32.4219 216.766 33.6751 216.506 35.3027C216.245 36.8978 216.034 38.8346 215.871 41.1133C215.741 43.3594 215.676 45.8496 215.676 48.584C215.676 50.2116 215.757 51.8392 215.92 53.4668C216.115 55.0944 216.213 56.7708 216.213 58.4961C216.213 59.082 216.05 59.6354 215.725 60.1562C215.399 60.6445 214.96 61.0677 214.406 61.4258C213.885 61.8164 213.251 62.1257 212.502 62.3535C211.786 62.5814 211.021 62.6953 210.207 62.6953C208.579 62.6953 207.408 61.7188 206.691 59.7656C205.975 57.8125 205.617 54.6875 205.617 50.3906C205.617 44.9544 205.91 40.0228 206.496 35.5957C207.115 31.1361 207.977 27.3275 209.084 24.1699C210.223 20.9798 211.558 18.5221 213.088 16.7969C214.65 15.0391 216.392 14.1602 218.312 14.1602C220.005 14.1602 221.617 15.1367 223.146 17.0898C224.709 19.0104 226.385 22.1354 228.176 26.4648C228.892 28.2227 229.657 29.8665 230.471 31.3965C231.317 32.9264 232.147 34.2611 232.961 35.4004C233.807 36.5072 234.621 37.3861 235.402 38.0371C236.184 38.6556 236.883 38.9648 237.502 38.9648C238.12 38.9648 238.706 38.8346 239.26 38.5742C239.846 38.2812 240.497 37.679 241.213 36.7676C241.962 35.8236 242.824 34.4564 243.801 32.666C244.81 30.8757 246.047 28.4831 247.512 25.4883C248.293 23.9258 248.993 22.6237 249.611 21.582C250.23 20.5404 250.848 19.7103 251.467 19.0918C252.085 18.4408 252.736 17.985 253.42 17.7246C254.104 17.4316 254.868 17.2852 255.715 17.2852C256.724 17.2852 257.717 17.8223 258.693 18.8965C259.67 19.9707 260.614 21.403 261.525 23.1934C262.469 24.9837 263.381 27.0671 264.26 29.4434C265.139 31.8197 265.985 34.3099 266.799 36.9141C267.645 39.5182 268.459 42.1712 269.24 44.873C270.054 47.5423 270.835 50.0814 271.584 52.4902C271.779 53.2064 271.91 53.7109 271.975 54.0039C272.072 54.2643 272.121 54.5898 272.121 54.9805C272.121 55.5339 271.942 56.0872 271.584 56.6406C271.258 57.1615 270.819 57.6335 270.266 58.0566C269.712 58.4798 269.077 58.8216 268.361 59.082C267.678 59.3424 266.994 59.4727 266.311 59.4727C265.399 59.4727 264.683 59.375 264.162 59.1797C263.674 58.9518 263.283 58.5612 262.99 58.0078C262.827 57.7148 262.551 56.9336 262.16 55.6641C261.77 54.3945 261.298 52.8971 260.744 51.1719C260.223 49.4141 259.637 47.5586 258.986 45.6055C258.368 43.6523 257.733 41.862 257.082 40.2344C256.464 38.5742 255.861 37.207 255.275 36.1328C254.689 35.026 254.169 34.4727 253.713 34.4727Z" fill="#000000"/>
<path d="M146.342 4.6875C146.342 2.96224 146.83 1.75781 147.807 1.07422C148.783 0.358073 150.395 0 152.641 0C153.454 0 154.138 0.0813802 154.691 0.244141C155.277 0.374349 155.766 0.634766 156.156 1.02539C156.579 1.41602 156.905 1.93685 157.133 2.58789C157.393 3.20638 157.605 4.00391 157.768 4.98047C158.158 8.00781 158.581 11.1328 159.037 14.3555C159.525 17.5781 160.03 20.8171 160.551 24.0723C160.746 25.5371 161.511 26.2695 162.846 26.2695C163.204 26.2695 163.79 26.237 164.604 26.1719C165.45 26.0742 166.443 25.9766 167.582 25.8789C168.721 25.7487 169.942 25.6185 171.244 25.4883C172.579 25.3581 173.897 25.2441 175.199 25.1465C176.534 25.0163 177.787 24.9186 178.959 24.8535C180.163 24.7559 181.221 24.707 182.133 24.707C182.849 24.707 183.419 24.8535 183.842 25.1465C184.265 25.4069 184.59 25.765 184.818 26.2207C185.079 26.6439 185.242 27.1322 185.307 27.6855C185.404 28.2064 185.453 28.7435 185.453 29.2969C185.453 29.7852 185.355 30.2897 185.16 30.8105C184.997 31.3314 184.753 31.8034 184.428 32.2266C184.135 32.6172 183.76 32.9427 183.305 33.2031C182.849 33.4635 182.328 33.5938 181.742 33.5938C178.91 33.5938 176.046 33.6914 173.148 33.8867C170.284 34.0495 167.419 34.2773 164.555 34.5703C163.09 34.7656 162.357 35.498 162.357 36.7676C162.357 36.8652 162.374 36.9954 162.406 37.1582C162.439 37.2884 162.455 37.4023 162.455 37.5C162.846 40.332 163.204 42.985 163.529 45.459C163.887 47.9329 164.18 50.1465 164.408 52.0996C164.669 54.0202 164.864 55.6315 164.994 56.9336C165.157 58.2031 165.238 59.0495 165.238 59.4727C165.238 60.6445 165.124 61.6211 164.896 62.4023C164.669 63.2161 164.294 63.8672 163.773 64.3555C163.253 64.8763 162.553 65.2344 161.674 65.4297C160.827 65.6576 159.753 65.7715 158.451 65.7715C157.214 65.7715 156.303 65.4785 155.717 64.8926C155.131 64.3066 154.805 63.4115 154.74 62.207C154.545 58.3659 154.236 54.5085 153.812 50.6348C153.389 46.7285 152.901 42.8385 152.348 38.9648C152.055 37.5651 151.322 36.8652 150.15 36.8652C150.053 36.8652 149.939 36.8815 149.809 36.9141C149.678 36.9466 149.564 36.9629 149.467 36.9629C147.449 37.4186 145.544 37.8743 143.754 38.3301C141.964 38.7858 140.287 39.2741 138.725 39.7949C137.846 40.0879 137.064 40.2995 136.381 40.4297C135.697 40.5273 135.079 40.5762 134.525 40.5762C133.777 40.5762 133.223 40.2507 132.865 39.5996C132.507 38.916 132.328 38.0697 132.328 37.0605C132.328 36.7025 132.361 36.2956 132.426 35.8398C132.491 35.3516 132.621 34.8796 132.816 34.4238C132.979 33.9355 133.24 33.4961 133.598 33.1055C133.923 32.6823 134.379 32.3405 134.965 32.0801C136.332 31.5267 138.155 30.957 140.434 30.3711C142.712 29.7526 145.284 29.1829 148.148 28.6621C148.799 28.4993 149.304 28.2389 149.662 27.8809C150.053 27.4902 150.248 26.9206 150.248 26.1719C150.248 26.0091 150.248 25.8464 150.248 25.6836C150.248 25.4883 150.215 25.293 150.15 25.0977C149.63 22.1029 149.125 19.3848 148.637 16.9434C148.181 14.4694 147.774 12.3535 147.416 10.5957C147.09 8.83789 146.83 7.45443 146.635 6.44531C146.439 5.4362 146.342 4.85026 146.342 4.6875Z" fill="#000000"/>
<path d="M127.443 11.2793C126.499 11.2793 125.604 11.1491 124.758 10.8887C123.944 10.5957 123.228 10.2051 122.609 9.7168C122.023 9.19596 121.551 8.59375 121.193 7.91016C120.835 7.22656 120.656 6.47786 120.656 5.66406C120.656 4.29688 121.193 3.1901 122.268 2.34375C123.374 1.4974 124.839 1.07422 126.662 1.07422C127.508 1.07422 128.322 1.23698 129.104 1.5625C129.885 1.85547 130.568 2.26237 131.154 2.7832C131.773 3.30404 132.261 3.92253 132.619 4.63867C132.977 5.32227 133.156 6.03841 133.156 6.78711C133.156 8.18685 132.635 9.29362 131.594 10.1074C130.585 10.8887 129.201 11.2793 127.443 11.2793ZM120.754 26.1719C120.754 25.0326 121.242 24.1048 122.219 23.3887C123.228 22.64 124.546 22.2656 126.174 22.2656C129.104 22.2656 130.666 23.2747 130.861 25.293C130.992 26.6927 131.122 28.2715 131.252 30.0293C131.415 31.7871 131.561 33.6589 131.691 35.6445C131.854 37.5977 131.984 39.6322 132.082 41.748C132.212 43.8314 132.326 45.8984 132.424 47.9492C132.521 49.9674 132.603 51.9206 132.668 53.8086C132.733 55.6966 132.766 57.4219 132.766 58.9844C132.766 60.612 132.18 61.8327 131.008 62.6465C129.868 63.4603 128.192 63.8672 125.979 63.8672C124.969 63.8672 124.172 63.623 123.586 63.1348C123.033 62.679 122.756 61.9954 122.756 61.084C122.756 56.5918 122.642 52.3926 122.414 48.4863C122.219 44.5475 121.991 41.0482 121.73 37.9883C121.503 34.9284 121.275 32.3893 121.047 30.3711C120.852 28.3203 120.754 26.9206 120.754 26.1719Z" fill="#000000"/>
<path d="M95.4629 18.7012C97.6439 18.7012 99.89 18.9941 102.201 19.5801C104.512 20.1335 106.628 20.8659 108.549 21.7773C110.469 22.6562 112.048 23.6491 113.285 24.7559C114.522 25.8626 115.141 26.9368 115.141 27.9785C115.141 28.4993 114.913 29.0853 114.457 29.7363C114.001 30.3548 113.448 30.957 112.797 31.543C112.146 32.0964 111.43 32.5684 110.648 32.959C109.9 33.3171 109.232 33.4961 108.646 33.4961C107.865 33.4961 106.986 33.1706 106.01 32.5195C105.066 31.8685 104.008 31.1523 102.836 30.3711C101.697 29.5573 100.443 28.8249 99.0762 28.1738C97.709 27.5228 96.2279 27.1973 94.6328 27.1973C93.5911 27.1973 92.7285 27.4577 92.0449 27.9785C91.3939 28.4668 91.0684 29.1667 91.0684 30.0781C91.0684 30.8919 91.459 31.722 92.2402 32.5684C93.0215 33.3822 94.0469 34.2285 95.3164 35.1074C96.6185 35.9863 98.0833 36.9141 99.7109 37.8906C101.339 38.8672 102.999 39.9089 104.691 41.0156C106.417 42.1224 108.093 43.3268 109.721 44.6289C111.348 45.931 112.797 47.347 114.066 48.877C115.368 50.4069 116.41 52.0833 117.191 53.9062C117.973 55.6966 118.363 57.6497 118.363 59.7656C118.363 61.5885 118.038 63.2487 117.387 64.7461C116.736 66.2435 115.808 67.5293 114.604 68.6035C113.399 69.6777 111.967 70.5078 110.307 71.0938C108.646 71.6797 106.824 71.9727 104.838 71.9727C102.331 71.9727 100.02 71.582 97.9043 70.8008C95.7884 70.0521 93.9655 69.0104 92.4355 67.6758C90.9056 66.3411 89.7012 64.7461 88.8223 62.8906C87.9759 61.0352 87.5527 59.0007 87.5527 56.7871C87.5527 53.9225 88.0573 51.8392 89.0664 50.5371C90.1081 49.235 91.7357 48.584 93.9492 48.584C95.3164 48.584 96.4069 48.8444 97.2207 49.3652C98.0345 49.8861 98.4414 50.5208 98.4414 51.2695C98.4414 51.6602 98.3763 52.0671 98.2461 52.4902C98.1159 52.8809 97.9694 53.304 97.8066 53.7598C97.6764 54.1829 97.5462 54.6387 97.416 55.127C97.3184 55.6152 97.2695 56.1035 97.2695 56.5918C97.2695 57.4382 97.4648 58.252 97.8555 59.0332C98.2461 59.8145 98.7669 60.498 99.418 61.084C100.102 61.7025 100.883 62.1908 101.762 62.5488C102.641 62.9069 103.568 63.0859 104.545 63.0859C107.149 63.0859 108.451 62.0117 108.451 59.8633C108.451 58.1706 107.784 56.5755 106.449 55.0781C105.115 53.5482 103.438 52.0671 101.42 50.6348C99.4017 49.1699 97.2207 47.7051 94.877 46.2402C92.5658 44.7754 90.401 43.2454 88.3828 41.6504C86.3646 40.0553 84.6882 38.3626 83.3535 36.5723C82.0189 34.7493 81.3516 32.7799 81.3516 30.6641C81.3516 28.9062 81.7096 27.2949 82.4258 25.8301C83.1745 24.3652 84.1836 23.112 85.4531 22.0703C86.7227 20.9961 88.2038 20.166 89.8965 19.5801C91.6217 18.9941 93.4772 18.7012 95.4629 18.7012Z" fill="#000000"/>
<path d="M68.9473 11.2793C68.0033 11.2793 67.1081 11.1491 66.2617 10.8887C65.4479 10.5957 64.7318 10.2051 64.1133 9.7168C63.5273 9.19596 63.0553 8.59375 62.6973 7.91016C62.3392 7.22656 62.1602 6.47786 62.1602 5.66406C62.1602 4.29688 62.6973 3.1901 63.7715 2.34375C64.8783 1.4974 66.3431 1.07422 68.166 1.07422C69.0124 1.07422 69.8262 1.23698 70.6074 1.5625C71.3887 1.85547 72.0723 2.26237 72.6582 2.7832C73.2767 3.30404 73.765 3.92253 74.123 4.63867C74.4811 5.32227 74.6602 6.03841 74.6602 6.78711C74.6602 8.18685 74.1393 9.29362 73.0977 10.1074C72.0885 10.8887 70.7051 11.2793 68.9473 11.2793ZM62.2578 26.1719C62.2578 25.0326 62.7461 24.1048 63.7227 23.3887C64.7318 22.64 66.0501 22.2656 67.6777 22.2656C70.6074 22.2656 72.1699 23.2747 72.3652 25.293C72.4954 26.6927 72.6257 28.2715 72.7559 30.0293C72.9186 31.7871 73.0651 33.6589 73.1953 35.6445C73.3581 37.5977 73.4883 39.6322 73.5859 41.748C73.7161 43.8314 73.8301 45.8984 73.9277 47.9492C74.0254 49.9674 74.1068 51.9206 74.1719 53.8086C74.237 55.6966 74.2695 57.4219 74.2695 58.9844C74.2695 60.612 73.6836 61.8327 72.5117 62.6465C71.3724 63.4603 69.696 63.8672 67.4824 63.8672C66.4733 63.8672 65.6758 63.623 65.0898 63.1348C64.5365 62.679 64.2598 61.9954 64.2598 61.084C64.2598 56.5918 64.1458 52.3926 63.918 48.4863C63.7227 44.5475 63.4948 41.0482 63.2344 37.9883C63.0065 34.9284 62.7786 32.3893 62.5508 30.3711C62.3555 28.3203 62.2578 26.9206 62.2578 26.1719Z" fill="#000000"/>
<path d="M11.4258 42.3828C9.86328 40.1693 8.38216 38.0859 6.98242 36.1328C5.61523 34.1471 4.41081 32.3079 3.36914 30.6152C2.32747 28.89 1.51367 27.3112 0.927734 25.8789C0.309245 24.4466 0 23.1445 0 21.9727C0 21.3867 0.260417 20.752 0.78125 20.0684C1.26953 19.3522 1.85547 18.7012 2.53906 18.1152C3.22266 17.4967 3.92253 16.9922 4.63867 16.6016C5.38737 16.1784 6.00586 15.9668 6.49414 15.9668C7.66602 15.9668 8.67513 16.6992 9.52148 18.1641C9.87956 18.8477 10.4167 19.8568 11.1328 21.1914C11.8815 22.4935 12.7441 23.9909 13.7207 25.6836C14.6973 27.3438 15.7715 29.1341 16.9434 31.0547C18.1478 32.9427 19.3685 34.8307 20.6055 36.7188C21.875 38.6068 23.1283 40.4297 24.3652 42.1875C25.6348 43.9128 26.8392 45.4427 27.9785 46.7773C29.1504 48.112 30.2246 49.1862 31.2012 50C32.2103 50.7812 33.0729 51.1719 33.7891 51.1719C34.7331 51.1719 35.5957 50.5208 36.377 49.2188C37.1582 47.9167 37.8743 46.2077 38.5254 44.0918C39.209 41.9759 39.8112 39.5833 40.332 36.9141C40.8529 34.2122 41.3086 31.4779 41.6992 28.7109C42.1224 25.944 42.4805 23.2747 42.7734 20.7031C43.0664 18.099 43.3105 15.8203 43.5059 13.8672C43.6035 12.8255 43.8965 12.0443 44.3848 11.5234C44.873 10.9701 45.5078 10.6934 46.2891 10.6934C46.9727 10.6934 47.7214 10.8398 48.5352 11.1328C49.349 11.4258 50.1139 11.8327 50.8301 12.3535C51.5462 12.8418 52.1322 13.4277 52.5879 14.1113C53.0762 14.7624 53.3203 15.4785 53.3203 16.2598C53.3203 17.4642 53.2064 18.8802 52.9785 20.5078C52.7832 22.1354 52.5228 23.8607 52.1973 25.6836C51.9043 27.474 51.5625 29.3132 51.1719 31.2012C50.7812 33.0566 50.3906 34.8145 50 36.4746C49.7396 37.6465 49.3815 39.1113 48.9258 40.8691C48.5026 42.5944 47.9655 44.4336 47.3145 46.3867C46.6634 48.3073 45.8984 50.2441 45.0195 52.1973C44.1406 54.1178 43.1315 55.8594 41.9922 57.4219C40.8529 58.9518 39.5671 60.1888 38.1348 61.1328C36.735 62.1094 35.1562 62.5977 33.3984 62.5977C32.1289 62.5977 30.8105 62.2396 29.4434 61.5234C28.0762 60.8398 26.709 59.9284 25.3418 58.7891C23.9746 57.6497 22.6237 56.3639 21.2891 54.9316C19.9544 53.4668 18.6849 51.9857 17.4805 50.4883C16.276 48.9909 15.153 47.5423 14.1113 46.1426C13.0697 44.7103 12.1745 43.457 11.4258 42.3828Z" fill="#000000"/>
</svg>
