<svg width="314" height="53" viewBox="0 0 314 53" fill="none" xmlns="http://www.w3.org/2000/svg">
<path d="M263.428 32.5354C263.428 32.1342 263.475 31.6857 263.569 31.1901C263.664 30.6944 263.711 30.1516 263.711 29.5615C263.711 29.1603 263.534 28.8535 263.18 28.641C262.849 28.4286 262.472 28.1926 262.047 27.933C261.622 27.6733 261.232 27.3429 260.878 26.9417C260.548 26.5404 260.383 25.9622 260.383 25.2069C260.383 24.6641 260.524 24.1212 260.808 23.5783C261.114 23.0355 261.551 22.5398 262.118 22.0914C263.51 21.0529 264.95 20.1206 266.437 19.2945C267.947 18.4684 269.446 17.7722 270.933 17.2057C272.444 16.6393 273.931 16.2026 275.394 15.8958C276.857 15.589 278.262 15.4355 279.607 15.4355C281.873 15.4355 283.997 15.8604 285.98 16.7101C287.986 17.5362 289.72 18.6809 291.184 20.1442C292.671 21.584 293.839 23.2833 294.689 25.2423C295.562 27.1777 295.999 29.2547 295.999 31.4733C295.999 33.6447 295.538 35.7099 294.618 37.6689C293.721 39.6043 292.506 41.3037 290.971 42.767C289.437 44.2304 287.632 45.3869 285.555 46.2366C283.501 47.1099 281.33 47.5465 279.04 47.5465C276.798 47.5465 274.721 47.1689 272.809 46.4136C270.898 45.6583 269.245 44.6198 267.853 43.2981C266.46 41.9528 265.375 40.3714 264.596 38.554C263.817 36.713 263.428 34.7068 263.428 32.5354ZM279.819 41.1739C280.811 41.1739 281.837 40.9733 282.899 40.572C283.962 40.1708 284.929 39.5925 285.803 38.8372C286.699 38.0584 287.431 37.1143 287.998 36.005C288.588 34.8957 288.883 33.6447 288.883 32.2522C288.883 30.8361 288.623 29.5143 288.104 28.287C287.584 27.0597 286.865 25.9976 285.944 25.1007C285.047 24.1802 283.973 23.4603 282.722 22.9411C281.495 22.4218 280.162 22.1622 278.722 22.1622C276.102 22.1622 274.096 22.8467 272.703 24.2156C271.311 25.5609 270.614 27.6379 270.614 30.4466C270.614 31.9808 270.839 33.4087 271.287 34.7304C271.759 36.0286 272.408 37.1615 273.234 38.1292C274.06 39.0733 275.028 39.8167 276.137 40.3596C277.27 40.9024 278.498 41.1739 279.819 41.1739Z" fill="black"/>
<path d="M252.562 8.17862C251.877 8.17862 251.228 8.08421 250.615 7.8954C250.024 7.68298 249.505 7.39975 249.057 7.04571C248.632 6.66808 248.29 6.23143 248.03 5.73578C247.77 5.24014 247.641 4.69728 247.641 4.10722C247.641 3.11593 248.03 2.31345 248.809 1.69979C249.611 1.08613 250.674 0.779297 251.995 0.779297C252.609 0.779297 253.199 0.897308 253.765 1.13333C254.332 1.34575 254.828 1.64078 255.252 2.01842C255.701 2.39606 256.055 2.8445 256.314 3.36375C256.574 3.8594 256.704 4.37865 256.704 4.9215C256.704 5.9364 256.326 6.73888 255.571 7.32894C254.839 7.8954 253.836 8.17862 252.562 8.17862ZM247.711 18.9767C247.711 18.1506 248.065 17.4779 248.774 16.9587C249.505 16.4158 250.461 16.1444 251.641 16.1444C253.765 16.1444 254.898 16.8761 255.04 18.3394C255.134 19.3543 255.229 20.499 255.323 21.7736C255.441 23.0481 255.547 24.4052 255.642 25.845C255.76 27.2611 255.854 28.7362 255.925 30.2704C256.019 31.7809 256.102 33.2797 256.173 34.7666C256.244 36.23 256.303 37.6461 256.35 39.0151C256.397 40.384 256.421 41.6349 256.421 42.7678C256.421 43.9479 255.996 44.833 255.146 45.4231C254.32 46.0131 253.105 46.3082 251.5 46.3082C250.768 46.3082 250.19 46.1312 249.765 45.7771C249.364 45.4467 249.163 44.951 249.163 44.2902C249.163 41.0331 249.08 37.9884 248.915 35.1561C248.774 32.3002 248.608 29.7629 248.42 27.5443C248.254 25.3257 248.089 23.4847 247.924 22.0214C247.782 20.5344 247.711 19.5195 247.711 18.9767Z" fill="black"/>
<path d="M229.192 13.3477C230.49 13.3477 231.741 13.5483 232.944 13.9495C234.148 14.3508 235.21 14.9054 236.131 15.6135C237.051 16.3215 237.783 17.1712 238.326 18.1625C238.892 19.1538 239.175 20.2513 239.175 21.4551C239.175 21.9507 239.057 22.4345 238.821 22.9066C238.609 23.355 238.314 23.7563 237.936 24.1103C237.559 24.4407 237.122 24.7122 236.626 24.9246C236.154 25.1134 235.659 25.2078 235.139 25.2078C235.092 25.2078 235.045 25.2196 234.998 25.2432C234.974 25.2432 234.939 25.2432 234.892 25.2432C234.844 25.2668 234.797 25.2786 234.75 25.2786L234.892 28.1109C234.986 31.486 235.458 33.9525 236.308 35.5102C237.181 37.068 238.314 37.8469 239.706 37.8469C240.202 37.8469 240.639 37.7997 241.016 37.7052C241.418 37.6108 241.783 37.5046 242.114 37.3866C242.468 37.245 242.798 37.127 243.105 37.0326C243.412 36.9382 243.719 36.891 244.026 36.891C244.568 36.891 245.041 37.127 245.442 37.599C245.867 38.0711 246.079 38.6375 246.079 39.2984C246.079 39.9593 245.819 40.6201 245.3 41.281C244.804 41.9419 244.144 42.5437 243.318 43.0866C242.491 43.6058 241.559 44.0307 240.521 44.3611C239.482 44.6915 238.432 44.8568 237.37 44.8568C235.529 44.8568 233.912 44.1015 232.519 42.5909C231.127 41.0568 230.136 38.8146 229.546 35.8643C229.404 35.3922 229.215 35.1562 228.979 35.1562C228.696 35.1562 228.448 35.2978 228.236 35.581C225.899 38.5313 223.409 40.7499 220.766 42.2369C218.122 43.7002 215.514 44.4319 212.941 44.4319C211.738 44.4319 210.652 44.2549 209.684 43.9009C208.717 43.5468 207.89 43.0512 207.206 42.4139C206.545 41.753 206.026 40.9624 205.648 40.0419C205.294 39.0978 205.117 38.0475 205.117 36.891C205.117 35.2624 205.471 33.5512 206.179 31.7575C206.911 29.9637 207.89 28.1935 209.118 26.4469C210.345 24.7004 211.761 23.0364 213.366 21.4551C214.995 19.8737 216.694 18.4812 218.464 17.2774C220.258 16.0737 222.075 15.1178 223.916 14.4098C225.757 13.7017 227.516 13.3477 229.192 13.3477ZM228.023 25.5973C228.448 24.7948 228.838 24.2165 229.192 23.8625C229.546 23.4849 230.053 23.237 230.714 23.119C231.233 23.0482 231.493 22.883 231.493 22.6234C231.493 22.4345 231.422 22.2339 231.28 22.0215C230.832 21.4078 230.36 20.8768 229.864 20.4284C229.369 19.9563 228.708 19.7203 227.882 19.7203C226.985 19.7203 225.982 19.9799 224.872 20.4992C223.763 21.0184 222.63 21.7147 221.474 22.588C220.341 23.4376 219.22 24.4171 218.11 25.5265C217.025 26.6122 216.057 27.7333 215.207 28.8898C214.357 30.0463 213.673 31.191 213.154 32.3239C212.635 33.4568 212.375 34.4717 212.375 35.3686C212.375 36.1711 212.587 36.7966 213.012 37.245C213.461 37.6934 214.062 37.9177 214.818 37.9177C216.753 37.9177 218.866 36.891 221.155 34.8376C223.444 32.7842 225.734 29.7041 228.023 25.5973Z" fill="black"/>
<path d="M190.958 24.9954C190.675 24.9954 190.427 25.2196 190.215 25.6681C189.318 27.4147 188.362 28.996 187.347 30.4122C186.356 31.8283 185.353 33.032 184.338 34.0233C183.323 35.0146 182.32 35.7817 181.329 36.3245C180.337 36.8438 179.405 37.1034 178.532 37.1034C177.682 37.1034 176.891 36.9264 176.16 36.5724C175.452 36.1947 174.673 35.4985 173.823 34.4836C172.997 33.4687 172.041 32.0643 170.955 30.2705C169.893 28.4768 168.583 26.1401 167.026 23.2607C166.766 22.7886 166.495 22.4464 166.211 22.234C165.952 21.9979 165.716 21.8799 165.503 21.8799C165.196 21.8799 164.913 22.2104 164.654 22.8712C164.394 23.5085 164.17 24.4172 163.981 25.5973C163.792 26.7538 163.639 28.1581 163.521 29.8103C163.426 31.4389 163.379 33.2444 163.379 35.227C163.379 36.4071 163.438 37.5873 163.556 38.7674C163.698 39.9475 163.768 41.163 163.768 42.4139C163.768 42.8388 163.65 43.24 163.414 43.6177C163.178 43.9717 162.86 44.2785 162.459 44.5381C162.081 44.8214 161.621 45.0456 161.078 45.2108C160.559 45.376 160.004 45.4586 159.414 45.4586C158.234 45.4586 157.384 44.7506 156.865 43.3344C156.346 41.9183 156.086 39.6525 156.086 36.537C156.086 32.5954 156.298 29.0196 156.723 25.8097C157.172 22.5762 157.797 19.8147 158.6 17.5253C159.426 15.2123 160.393 13.4303 161.503 12.1794C162.636 10.9048 163.898 10.2676 165.291 10.2676C166.518 10.2676 167.686 10.9756 168.796 12.3918C169.929 13.7843 171.144 16.0501 172.442 19.1893C172.962 20.4638 173.516 21.6557 174.106 22.765C174.72 23.8743 175.322 24.842 175.912 25.6681C176.526 26.4706 177.116 27.1078 177.682 27.5799C178.249 28.0283 178.756 28.2525 179.204 28.2525C179.653 28.2525 180.078 28.1581 180.479 27.9693C180.904 27.7569 181.376 27.3203 181.895 26.6594C182.438 25.9749 183.063 24.9836 183.771 23.6855C184.503 22.3874 185.4 20.6526 186.462 18.4812C187.029 17.3483 187.536 16.4042 187.984 15.6489C188.433 14.8936 188.881 14.2918 189.33 13.8433C189.778 13.3713 190.25 13.0409 190.746 12.852C191.242 12.6396 191.796 12.5334 192.41 12.5334C193.142 12.5334 193.861 12.9228 194.57 13.7017C195.278 14.4806 195.962 15.5191 196.623 16.8172C197.307 18.1153 197.968 19.6259 198.606 21.3489C199.243 23.0718 199.856 24.8774 200.446 26.7656C201.06 28.6538 201.65 30.5774 202.217 32.5364C202.807 34.4718 203.373 36.3127 203.916 38.0593C204.058 38.5786 204.152 38.9444 204.199 39.1568C204.27 39.3456 204.305 39.5817 204.305 39.8649C204.305 40.2661 204.176 40.6674 203.916 41.0686C203.68 41.4462 203.361 41.7885 202.96 42.0953C202.559 42.4021 202.099 42.65 201.579 42.8388C201.084 43.0276 200.588 43.122 200.092 43.122C199.432 43.122 198.912 43.0512 198.535 42.9096C198.181 42.7444 197.897 42.4611 197.685 42.0599C197.567 41.8475 197.366 41.281 197.083 40.3605C196.8 39.44 196.458 38.3543 196.056 37.1034C195.679 35.8289 195.254 34.4836 194.782 33.0674C194.333 31.6513 193.873 30.3532 193.401 29.173C192.953 27.9693 192.516 26.978 192.091 26.1991C191.666 25.3967 191.289 24.9954 190.958 24.9954Z" fill="black"/>
<path d="M106.106 3.39873C106.106 2.14781 106.46 1.27453 107.168 0.778876C107.876 0.259626 109.045 0 110.673 0C111.263 0 111.759 0.0590058 112.16 0.177017C112.585 0.271427 112.939 0.460245 113.222 0.743473C113.529 1.0267 113.765 1.40434 113.93 1.87638C114.119 2.32483 114.273 2.90308 114.391 3.61115C114.674 5.80617 114.981 8.07199 115.311 10.4086C115.665 12.7453 116.031 15.0937 116.409 17.4539C116.55 18.516 117.105 19.0471 118.072 19.0471C118.332 19.0471 118.757 19.0235 119.347 18.9763C119.961 18.9055 120.681 18.8347 121.507 18.7638C122.333 18.6694 123.218 18.575 124.162 18.4806C125.13 18.3862 126.085 18.3036 127.03 18.2328C127.997 18.1384 128.906 18.0676 129.756 18.0204C130.629 17.9496 131.396 17.9142 132.057 17.9142C132.576 17.9142 132.989 18.0204 133.296 18.2328C133.603 18.4216 133.839 18.6812 134.004 19.0117C134.193 19.3185 134.311 19.6725 134.358 20.0738C134.429 20.4514 134.464 20.8408 134.464 21.2421C134.464 21.5961 134.393 21.962 134.252 22.3396C134.134 22.7172 133.957 23.0595 133.721 23.3663C133.508 23.6495 133.237 23.8855 132.907 24.0744C132.576 24.2632 132.198 24.3576 131.774 24.3576C129.72 24.3576 127.643 24.4284 125.543 24.57C123.466 24.688 121.389 24.8532 119.312 25.0657C118.25 25.2073 117.718 25.7383 117.718 26.6588C117.718 26.7296 117.73 26.824 117.754 26.942C117.777 27.0365 117.789 27.1191 117.789 27.1899C118.072 29.2433 118.332 31.1669 118.568 32.9606C118.828 34.7544 119.04 36.3594 119.205 37.7755C119.394 39.168 119.536 40.3364 119.63 41.2805C119.748 42.2009 119.807 42.8146 119.807 43.1214C119.807 43.9711 119.725 44.6792 119.559 45.2456C119.394 45.8357 119.123 46.3077 118.745 46.6618C118.368 47.0394 117.86 47.299 117.223 47.4407C116.609 47.6059 115.83 47.6885 114.886 47.6885C113.989 47.6885 113.328 47.4761 112.904 47.0512C112.479 46.6264 112.243 45.9773 112.196 45.104C112.054 42.319 111.83 39.5221 111.523 36.7134C111.216 33.8811 110.862 31.0606 110.461 28.252C110.248 27.2371 109.717 26.7296 108.868 26.7296C108.797 26.7296 108.714 26.7414 108.62 26.765C108.525 26.7886 108.443 26.8004 108.372 26.8004C106.909 27.1309 105.528 27.4613 104.23 27.7917C102.932 28.1222 101.716 28.4762 100.583 28.8538C99.9459 29.0663 99.3794 29.2197 98.8838 29.3141C98.3882 29.3849 97.9397 29.4203 97.5385 29.4203C96.9956 29.4203 96.5944 29.1843 96.3348 28.7122C96.0751 28.2166 95.9453 27.6029 95.9453 26.8712C95.9453 26.6116 95.9689 26.3166 96.0161 25.9862C96.0633 25.6321 96.1577 25.2899 96.2993 24.9595C96.4174 24.6054 96.6062 24.2868 96.8658 24.0036C97.1018 23.6967 97.4323 23.4489 97.8571 23.2601C98.8484 22.8588 100.17 22.4458 101.822 22.021C103.474 21.5725 105.339 21.1595 107.416 20.7818C107.888 20.6638 108.254 20.475 108.514 20.2154C108.797 19.9322 108.938 19.5191 108.938 18.9763C108.938 18.8583 108.938 18.7402 108.938 18.6222C108.938 18.4806 108.915 18.339 108.868 18.1974C108.49 16.026 108.124 14.0552 107.77 12.285C107.44 10.4912 107.145 8.95708 106.885 7.68255C106.649 6.40803 106.46 5.40493 106.319 4.67326C106.177 3.94159 106.106 3.51675 106.106 3.39873Z" fill="black"/>
<path d="M92.4055 8.17862C91.721 8.17862 91.0719 8.08421 90.4583 7.8954C89.8682 7.68298 89.349 7.39975 88.9005 7.04571C88.4757 6.66808 88.1334 6.23143 87.8738 5.73578C87.6142 5.24014 87.4844 4.69728 87.4844 4.10722C87.4844 3.11593 87.8738 2.31345 88.6527 1.69979C89.4552 1.08613 90.5173 0.779297 91.839 0.779297C92.4527 0.779297 93.0427 0.897308 93.6092 1.13333C94.1756 1.34575 94.6713 1.64078 95.0961 2.01842C95.5446 2.39606 95.8986 2.8445 96.1582 3.36375C96.4179 3.8594 96.5477 4.37865 96.5477 4.9215C96.5477 5.9364 96.17 6.73888 95.4148 7.32894C94.6831 7.8954 93.68 8.17862 92.4055 8.17862ZM87.5552 18.9767C87.5552 18.1506 87.9092 17.4779 88.6173 16.9587C89.349 16.4158 90.3049 16.1444 91.485 16.1444C93.6092 16.1444 94.7421 16.8761 94.8837 18.3394C94.9781 19.3543 95.0725 20.499 95.1669 21.7736C95.2849 23.0481 95.3912 24.4052 95.4856 25.845C95.6036 27.2611 95.698 28.7362 95.7688 30.2704C95.8632 31.7809 95.9458 33.2797 96.0166 34.7666C96.0874 36.23 96.1464 37.6461 96.1936 39.0151C96.2408 40.384 96.2644 41.6349 96.2644 42.7678C96.2644 43.9479 95.8396 44.833 94.9899 45.4231C94.1638 46.0131 92.9483 46.3082 91.3434 46.3082C90.6117 46.3082 90.0334 46.1312 89.6086 45.7771C89.2073 45.4467 89.0067 44.951 89.0067 44.2902C89.0067 41.0331 88.9241 37.9884 88.7589 35.1561C88.6173 32.3002 88.4521 29.7629 88.2633 27.5443C88.098 25.3257 87.9328 23.4847 87.7676 22.0214C87.626 20.5344 87.5552 19.5195 87.5552 18.9767Z" fill="black"/>
<path d="M69.216 13.5586C70.7973 13.5586 72.4259 13.771 74.1017 14.1959C75.7774 14.5971 77.3116 15.1281 78.7041 15.789C80.0966 16.4263 81.2414 17.1461 82.1382 17.9486C83.0351 18.7511 83.4836 19.53 83.4836 20.2853C83.4836 20.6629 83.3184 21.0877 82.9879 21.5598C82.6575 22.0082 82.2563 22.4449 81.7842 22.8697C81.3122 23.2709 80.7929 23.6132 80.2265 23.8964C79.6836 24.156 79.1998 24.2858 78.7749 24.2858C78.2085 24.2858 77.5712 24.0498 76.8631 23.5778C76.1787 23.1057 75.4116 22.5865 74.5619 22.02C73.7358 21.43 72.8271 20.8989 71.8358 20.4269C70.8445 19.9548 69.7706 19.7188 68.6141 19.7188C67.8588 19.7188 67.2334 19.9076 66.7377 20.2853C66.2657 20.6393 66.0297 21.1467 66.0297 21.8076C66.0297 22.3977 66.3129 22.9995 66.8794 23.6132C67.4458 24.2032 68.1893 24.8169 69.1098 25.4542C70.0539 26.0914 71.116 26.7641 72.2961 27.4722C73.4762 28.1802 74.6799 28.9355 75.9072 29.738C77.1582 30.5405 78.3737 31.4137 79.5538 32.3578C80.7339 33.3019 81.7842 34.3286 82.7047 35.4379C83.6488 36.5473 84.4041 37.7628 84.9705 39.0845C85.537 40.3826 85.8202 41.7988 85.8202 43.3329C85.8202 44.6546 85.5842 45.8584 85.1121 46.9441C84.6401 48.0298 83.9674 48.9621 83.0941 49.7409C82.2209 50.5198 81.1824 51.1217 79.9786 51.5465C78.7749 51.9714 77.4532 52.1838 76.0134 52.1838C74.1961 52.1838 72.5203 51.9006 70.9862 51.3341C69.452 50.7912 68.1303 50.036 67.021 49.0683C65.9117 48.1006 65.0384 46.9441 64.4011 45.5987C63.7874 44.2534 63.4806 42.7783 63.4806 41.1733C63.4806 39.0963 63.8465 37.5858 64.5781 36.6417C65.3334 35.6976 66.5135 35.2255 68.1185 35.2255C69.1098 35.2255 69.9004 35.4143 70.4905 35.792C71.0806 36.1696 71.3756 36.6299 71.3756 37.1727C71.3756 37.4559 71.3284 37.751 71.234 38.0578C71.1396 38.341 71.0334 38.6479 70.9153 38.9783C70.8209 39.2851 70.7265 39.6156 70.6321 39.9696C70.5613 40.3236 70.5259 40.6777 70.5259 41.0317C70.5259 41.6454 70.6675 42.2354 70.9508 42.8019C71.234 43.3683 71.6116 43.864 72.0837 44.2888C72.5793 44.7373 73.1458 45.0913 73.783 45.3509C74.4203 45.6105 75.093 45.7404 75.801 45.7404C77.6892 45.7404 78.6333 44.9615 78.6333 43.4037C78.6333 42.1764 78.1495 41.0199 77.1818 39.9342C76.2141 38.8249 74.9985 37.751 73.5352 36.7125C72.0719 35.6504 70.4905 34.5883 68.7911 33.5262C67.1154 32.4641 65.5458 31.3547 64.0825 30.1982C62.6191 29.0417 61.4036 27.8144 60.4359 26.5163C59.4682 25.1945 58.9844 23.7666 58.9844 22.2324C58.9844 20.9579 59.244 19.7896 59.7633 18.7275C60.3061 17.6654 61.0378 16.7567 61.9583 16.0014C62.8788 15.2226 63.9527 14.6207 65.18 14.1959C66.4309 13.771 67.7762 13.5586 69.216 13.5586Z" fill="black"/>
<path d="M49.9914 8.17862C49.3069 8.17862 48.6579 8.08421 48.0442 7.8954C47.4541 7.68298 46.9349 7.39975 46.4865 7.04571C46.0616 6.66808 45.7194 6.23143 45.4598 5.73578C45.2001 5.24014 45.0703 4.69728 45.0703 4.10722C45.0703 3.11593 45.4598 2.31345 46.2386 1.69979C47.0411 1.08613 48.1032 0.779297 49.4249 0.779297C50.0386 0.779297 50.6287 0.897308 51.1951 1.13333C51.7616 1.34575 52.2572 1.64078 52.6821 2.01842C53.1305 2.39606 53.4845 2.8445 53.7442 3.36375C54.0038 3.8594 54.1336 4.37865 54.1336 4.9215C54.1336 5.9364 53.756 6.73888 53.0007 7.32894C52.269 7.8954 51.2659 8.17862 49.9914 8.17862ZM45.1411 18.9767C45.1411 18.1506 45.4952 17.4779 46.2032 16.9587C46.9349 16.4158 47.8908 16.1444 49.0709 16.1444C51.1951 16.1444 52.328 16.8761 52.4696 18.3394C52.564 19.3543 52.6585 20.499 52.7529 21.7736C52.8709 23.0481 52.9771 24.4052 53.0715 25.845C53.1895 27.2611 53.2839 28.7362 53.3547 30.2704C53.4491 31.7809 53.5317 33.2797 53.6026 34.7666C53.6734 36.23 53.7324 37.6461 53.7796 39.0151C53.8268 40.384 53.8504 41.6349 53.8504 42.7678C53.8504 43.9479 53.4255 44.833 52.5759 45.4231C51.7498 46.0131 50.5342 46.3082 48.9293 46.3082C48.1976 46.3082 47.6194 46.1312 47.1945 45.7771C46.7933 45.4467 46.5927 44.951 46.5927 44.2902C46.5927 41.0331 46.5101 37.9884 46.3448 35.1561C46.2032 32.3002 46.038 29.7629 45.8492 27.5443C45.684 25.3257 45.5188 23.4847 45.3535 22.0214C45.2119 20.5344 45.1411 19.5195 45.1411 18.9767Z" fill="black"/>
<path d="M8.28441 30.7308C7.1515 29.1258 6.0776 27.6153 5.0627 26.1991C4.0714 24.7594 3.19811 23.4258 2.44284 22.1985C1.68757 20.9476 1.09751 19.8029 0.672666 18.7644C0.224222 17.7259 0 16.7818 0 15.9321C0 15.5073 0.188819 15.047 0.566456 14.5514C0.92049 14.0321 1.34533 13.5601 1.84098 13.1352C2.33663 12.6868 2.84408 12.321 3.36333 12.0377C3.90618 11.7309 4.35463 11.5775 4.70866 11.5775C5.55835 11.5775 6.29002 12.1085 6.90368 13.1706C7.1633 13.6663 7.55274 14.398 8.07199 15.3657C8.61485 16.3097 9.24031 17.3955 9.94838 18.6228C10.6564 19.8265 11.4353 21.1246 12.285 22.5172C13.1583 23.8861 14.0434 25.255 14.9403 26.624C15.8608 27.9929 16.7694 29.3146 17.6663 30.5891C18.5868 31.8401 19.4601 32.9494 20.2862 33.9171C21.1359 34.8848 21.9148 35.6636 22.6228 36.2537C23.3545 36.8202 23.98 37.1034 24.4992 37.1034C25.1837 37.1034 25.8091 36.6313 26.3756 35.6873C26.942 34.7432 27.4613 33.504 27.9333 31.9699C28.429 30.4357 28.8656 28.701 29.2433 26.7656C29.6209 24.8066 29.9513 22.824 30.2346 20.8178C30.5414 18.8116 30.801 16.8762 31.0134 15.0116C31.2259 13.1234 31.4029 11.4713 31.5445 10.0551C31.6153 9.29986 31.8277 8.7334 32.1818 8.35577C32.5358 7.95453 32.996 7.75391 33.5625 7.75391C34.0581 7.75391 34.601 7.86012 35.1911 8.07254C35.7811 8.28496 36.3358 8.57999 36.855 8.95762C37.3743 9.31166 37.7991 9.7365 38.1295 10.2321C38.4836 10.7042 38.6606 11.2234 38.6606 11.7899C38.6606 12.6632 38.578 13.6899 38.4128 14.87C38.2712 16.0501 38.0823 17.301 37.8463 18.6228C37.6339 19.9209 37.3861 21.2544 37.1028 22.6234C36.8196 23.9687 36.5364 25.2432 36.2532 26.4469C36.0643 27.2966 35.8047 28.3587 35.4743 29.6333C35.1675 30.8842 34.778 32.2177 34.306 33.6338C33.8339 35.0264 33.2793 36.4307 32.642 37.8469C32.0047 39.2394 31.2731 40.5021 30.447 41.635C29.6209 42.7443 28.6886 43.6412 27.6501 44.3257C26.6352 45.0338 25.4905 45.3878 24.216 45.3878C23.2955 45.3878 22.3396 45.1282 21.3483 44.6089C20.357 44.1133 19.3657 43.4524 18.3744 42.6263C17.3831 41.8003 16.4036 40.868 15.4359 39.8295C14.4682 38.7674 13.5477 37.6934 12.6744 36.6077C11.8012 35.522 10.9869 34.4717 10.2316 33.4568C9.47633 32.4183 8.82727 31.5096 8.28441 30.7308Z" fill="black"/>
<path d="M308.059 48C307.077 48 306.146 47.8565 305.266 47.5694C304.419 47.2823 303.674 46.8995 303.031 46.4211C302.388 45.9107 301.88 45.3206 301.508 44.6507C301.169 43.9809 301 43.2632 301 42.4976C301 41.1579 301.559 40.0734 302.676 39.244C303.827 38.4147 305.333 38 307.195 38C308.076 38 308.922 38.1595 309.734 38.4785C310.581 38.7656 311.309 39.1643 311.918 39.6746C312.561 40.185 313.069 40.7751 313.441 41.445C313.814 42.1148 314 42.8166 314 43.5502C314 44.9537 313.458 46.0542 312.375 46.8517C311.326 47.6172 309.887 48 308.059 48Z" fill="black"/>
</svg>
