<svg width="139" height="91" viewBox="0 0 139 91" fill="none" xmlns="http://www.w3.org/2000/svg">
<path d="M127.341 3.22754H138.57V27.0722H130.486V10.567L120.204 27.0722H18.1287L7.84676 10.567V27.0722H0V3.22754H11.601L22.6004 20.6621H116.553L127.341 3.22754Z" fill="white"/>
<path d="M130.571 67.1553H138.509L133.716 74.4947L123.434 90.9999H14.9014L4.61949 74.4947L0.324219 67.1553H8.37376L19.3731 84.5899H119.783L130.571 67.1553Z" fill="white"/>
<path d="M138.029 49.4852C138.434 50.2631 138.637 51.1425 138.637 52.1233V52.563C138.637 57.1628 135.018 59.4289 127.78 59.4289H0V35.5166H127.577C131.061 35.5166 133.53 36.0239 134.985 37.0386C136.439 38.0871 137.149 39.3723 137.149 40.9958V41.4355C137.149 42.1796 137.014 42.8222 136.709 43.431C136.439 44.006 136.033 44.4795 135.526 44.8177C135.052 45.1898 134.612 45.4603 134.207 45.6633C133.801 45.8324 133.395 46.0015 132.989 46.103C133.564 46.2382 134.105 46.4074 134.646 46.6441C135.187 46.8809 135.796 47.2191 136.439 47.6588C137.115 48.0985 137.623 48.7073 138.029 49.4852ZM8.18498 40.5899V44.4795H126.191C128.085 44.4795 129.032 43.8369 129.032 42.5516V42.484C129.032 41.1987 128.085 40.5899 126.191 40.5899H8.18498ZM130.114 51.8866V51.7513C130.114 50.2969 129.032 49.5528 126.867 49.5528H8.18498V54.2541H126.867C128.085 54.2541 128.93 54.0174 129.404 53.5438C129.877 53.0703 130.114 52.4954 130.114 51.8866Z" fill="#CEEC58"/>
<path d="M113.006 14.206C113.006 14.206 106.645 14.206 98.7997 14.206C90.954 14.206 84.5938 14.206 84.5938 14.206C84.5938 6.36022 90.954 0 98.7997 0C106.645 0 113.006 6.36022 113.006 14.206Z" fill="#CEEC58"/>
</svg>
