<svg width="469" height="91" viewBox="0 0 469 91" fill="none" xmlns="http://www.w3.org/2000/svg">
<path d="M446.859 88.9996C445.779 88.9996 444.859 88.1196 444.859 86.9996V59.5596C444.859 58.4396 445.779 57.5596 446.859 57.5596H458.739C458.899 57.5596 459.859 57.5596 461.099 57.8796C462.859 58.3196 464.419 59.1996 465.619 60.3596C466.499 61.2396 467.219 62.3196 467.699 63.5596C468.219 64.9196 468.499 66.4796 468.499 68.1996C468.499 71.9996 466.899 74.8796 463.899 76.5996C461.739 77.8396 458.859 78.4396 455.299 78.4396C454.219 78.4396 453.299 77.5596 453.299 76.4396C453.299 75.3196 454.219 74.4396 455.299 74.4396C458.139 74.4396 460.379 73.9996 461.899 73.1196C463.659 72.1196 464.499 70.5596 464.499 68.1996C464.499 66.5996 464.179 65.2796 463.619 64.2796C463.179 63.4796 462.539 62.8796 461.779 62.4396C460.339 61.5996 458.859 61.5596 458.739 61.5596H448.859V86.9996C448.859 88.1196 447.979 88.9996 446.859 88.9996Z" fill="white"/>
<path d="M438.84 88.9993C437.76 88.9993 436.8 88.0793 436.8 86.9993V66.7993L426.96 83.3193C426.6 83.8393 426 84.1193 425.36 84.1193C424.72 84.1193 424.12 83.8393 423.72 83.3193L413.84 66.7993V86.9993C413.84 88.0793 412.96 88.9993 411.84 88.9993C410.76 88.9993 409.84 88.0793 409.84 86.9993V59.4793C409.84 58.5993 410.4 57.8393 411.24 57.5593C412.04 57.2793 412.96 57.5993 413.48 58.2793L425.36 78.3193L437.2 58.2793C437.76 57.5993 438.64 57.2793 439.48 57.5593C440.28 57.8393 440.84 58.5993 440.84 59.4793V86.9993C440.84 88.0793 439.96 88.9993 438.84 88.9993Z" fill="white"/>
<path d="M404.888 88.8396C403.968 89.2396 402.768 88.9196 402.208 87.8396L399.448 81.6796C396.848 81.0396 394.248 80.9996 391.728 81.5596C389.688 81.9596 387.688 82.7196 385.728 83.9196C383.728 85.1596 381.648 86.7996 380.128 88.2796C379.368 89.0396 378.368 89.2796 377.528 88.7596C376.648 88.1996 376.768 87.0796 377.168 86.1596L389.808 58.7196C390.168 57.9996 390.848 57.5596 391.648 57.5596C392.408 57.5596 393.168 58.0396 393.448 58.7196L405.888 86.1596C406.328 87.1996 405.888 88.3596 404.888 88.8396ZM391.608 64.3596L383.928 80.7196C386.048 79.5196 388.848 78.4396 391.088 77.9996C393.248 77.5196 395.448 77.4396 397.648 77.6396L391.608 64.3596Z" fill="white"/>
<path d="M361.944 89.5189C359.704 89.5189 357.544 89.0789 355.504 88.1989C353.584 87.3589 351.824 86.1989 350.304 84.6789C348.784 83.1989 347.624 81.439 346.784 79.479C345.904 77.479 345.504 75.3589 345.504 73.1989C345.504 70.9989 345.944 68.8789 346.784 66.8789C347.624 64.9589 348.824 63.1989 350.344 61.7189C351.864 60.1989 353.664 59.0389 355.624 58.1989C357.664 57.3589 359.824 56.9189 362.024 56.9189C365.624 56.9189 368.984 58.0389 371.784 60.1989C372.664 60.8789 372.824 62.1189 372.184 62.9989C371.504 63.8789 370.224 64.0389 369.384 63.3989C367.264 61.7589 364.744 60.9189 362.024 60.9189C360.344 60.9189 358.704 61.2389 357.144 61.8789C355.664 62.5189 354.304 63.3989 353.144 64.5589C352.024 65.6789 351.104 66.9989 350.464 68.4789C349.824 69.9589 349.504 71.5589 349.504 73.1989C349.504 74.8389 349.824 76.3989 350.464 77.9189C351.104 79.3989 351.984 80.7189 353.144 81.8389C355.504 84.1989 358.624 85.5189 361.944 85.5189C363.424 85.5189 364.824 85.2389 366.184 84.7589C367.504 84.2789 368.704 83.5589 369.784 82.6789C370.624 81.9589 371.864 82.0789 372.584 82.9189C373.304 83.7589 373.184 85.0389 372.344 85.7189C370.904 86.9189 369.304 87.839 367.584 88.479C365.784 89.159 363.864 89.5189 361.944 89.5189Z" fill="white"/>
<path d="M325.027 57.8789C325.947 58.5189 326.187 59.7589 325.587 60.6789L315.147 76.2789V86.9989C315.147 88.0789 314.267 88.9989 313.147 88.9989C312.067 88.9989 311.147 88.0789 311.147 86.9989V76.2789L300.747 60.6789C300.147 59.7589 300.387 58.5189 301.307 57.8789C302.227 57.2789 303.467 57.5189 304.067 58.4389L313.147 72.0789L322.267 58.4389C322.867 57.5189 324.107 57.2789 325.027 57.8789Z" fill="white"/>
<path d="M294.421 84.9996C295.541 84.9996 296.421 85.8796 296.421 86.9996C296.421 88.1196 295.541 88.9996 294.421 88.9996H275.301C274.221 88.9996 273.301 88.1196 273.301 86.9996V59.5596C273.301 58.4396 274.221 57.5596 275.301 57.5596H294.021C295.141 57.5596 296.021 58.4396 296.021 59.5596C296.021 60.6796 295.141 61.5596 294.021 61.5596H277.301V71.1996H292.101C293.221 71.1996 294.101 72.1196 294.101 73.1996C294.101 74.3196 293.221 75.1996 292.101 75.1996H277.301V84.9996H294.421Z" fill="white"/>
<path d="M267.292 88.9996H249.852C248.772 88.9996 247.852 88.1196 247.852 86.9996V59.5596C247.852 58.4396 248.772 57.5596 249.852 57.5596C250.972 57.5596 251.852 58.4396 251.852 59.5596V84.9996H267.292C268.412 84.9996 269.292 85.8796 269.292 86.9996C269.292 88.1196 268.412 88.9996 267.292 88.9996Z" fill="white"/>
<path d="M241.842 88.9996H224.402C223.322 88.9996 222.402 88.1196 222.402 86.9996V59.5596C222.402 58.4396 223.322 57.5596 224.402 57.5596C225.522 57.5596 226.402 58.4396 226.402 59.5596V84.9996H241.842C242.962 84.9996 243.842 85.8796 243.842 86.9996C243.842 88.1196 242.962 88.9996 241.842 88.9996Z" fill="white"/>
<path d="M202.374 89.6791C200.174 89.6791 198.014 89.2391 195.974 88.3591C194.014 87.5191 192.254 86.3591 190.734 84.8391C189.254 83.3191 188.054 81.5991 187.214 79.6391C186.374 77.6391 185.934 75.5191 185.934 73.3591C185.934 71.1591 186.374 69.0391 187.254 67.0391C188.094 65.1191 189.294 63.3591 190.814 61.8791C192.334 60.3591 194.094 59.1991 196.054 58.3591C198.094 57.5191 200.254 57.0791 202.494 57.0791C206.854 57.0791 210.934 58.7991 213.974 61.9191C215.454 63.3991 216.574 65.1591 217.374 67.0791C218.214 69.0791 218.614 71.1991 218.614 73.3591C218.614 75.5591 218.214 77.6791 217.374 79.6391C216.574 81.5991 215.414 83.3591 213.934 84.8391C210.854 87.9591 206.774 89.6791 202.374 89.6791ZM202.494 61.0791C200.814 61.0791 199.174 61.3991 197.614 62.0391C196.094 62.6791 194.774 63.5591 193.614 64.7191C192.454 65.8391 191.534 67.1591 190.934 68.6391C190.254 70.1191 189.934 71.7191 189.934 73.3591C189.934 74.9991 190.254 76.5591 190.894 78.0791C191.534 79.5591 192.414 80.8791 193.574 81.9991C195.934 84.3591 199.054 85.6791 202.374 85.6791C205.694 85.6791 208.774 84.3591 211.094 82.0391C212.214 80.9191 213.054 79.5991 213.694 78.1191C214.294 76.5991 214.614 74.9991 214.614 73.3591C214.614 70.0791 213.374 66.9991 211.134 64.7191C208.854 62.3591 205.774 61.0791 202.494 61.0791Z" fill="white"/>
<path d="M171.078 89.079C170.238 89.079 169.518 88.599 169.198 87.839L157.758 60.159C157.358 59.159 157.838 57.999 158.838 57.559C159.878 57.119 161.038 57.639 161.478 58.639L171.078 81.839L180.678 58.639C181.078 57.639 182.278 57.119 183.278 57.559C184.318 57.999 184.798 59.159 184.358 60.159L172.918 87.839C172.598 88.599 171.878 89.079 171.078 89.079Z" fill="white"/>
<path d="M426.83 9.55957C427.95 9.55957 428.83 10.4396 428.83 11.5596V38.9996C428.83 40.0796 427.95 40.9996 426.83 40.9996C425.75 40.9996 424.83 40.0796 424.83 38.9996V26.9196H407.59V38.9996C407.59 40.0796 406.71 40.9996 405.59 40.9996C404.47 40.9996 403.59 40.0796 403.59 38.9996V11.5596C403.59 10.4396 404.47 9.55957 405.59 9.55957C406.71 9.55957 407.59 10.4396 407.59 11.5596V22.9196H424.83V11.5596C424.83 10.4396 425.75 9.55957 426.83 9.55957Z" fill="white"/>
<path d="M388.487 41.5189C386.247 41.5189 384.087 41.0789 382.047 40.1989C380.127 39.3589 378.367 38.1989 376.847 36.6789C375.327 35.1989 374.167 33.4389 373.327 31.4789C372.447 29.4789 372.047 27.3589 372.047 25.1989C372.047 22.9989 372.487 20.8789 373.327 18.8789C374.167 16.9589 375.367 15.1989 376.887 13.7189C378.407 12.1989 380.207 11.0389 382.167 10.1989C384.207 9.35895 386.367 8.91895 388.567 8.91895C392.167 8.91895 395.527 10.0389 398.327 12.1989C399.207 12.8789 399.367 14.1189 398.727 14.9989C398.047 15.8789 396.767 16.0389 395.927 15.3989C393.807 13.7589 391.287 12.9189 388.567 12.9189C386.887 12.9189 385.247 13.2389 383.687 13.8789C382.207 14.5189 380.847 15.3989 379.687 16.5589C378.567 17.6789 377.647 18.9989 377.007 20.4789C376.367 21.9589 376.047 23.5589 376.047 25.1989C376.047 26.8389 376.367 28.3989 377.007 29.9189C377.647 31.3989 378.527 32.7189 379.687 33.8389C382.047 36.1989 385.167 37.5189 388.487 37.5189C389.967 37.5189 391.367 37.2389 392.727 36.7589C394.047 36.2789 395.247 35.5589 396.327 34.6789C397.167 33.9589 398.407 34.0789 399.127 34.9189C399.847 35.7589 399.727 37.0389 398.887 37.7189C397.447 38.9189 395.847 39.8389 394.127 40.4789C392.327 41.1589 390.407 41.5189 388.487 41.5189Z" fill="white"/>
<path d="M369.907 40.8396C368.987 41.2396 367.787 40.9196 367.227 39.8396L364.467 33.6796C361.867 33.0396 359.267 32.9996 356.747 33.5596C354.707 33.9596 352.707 34.7196 350.747 35.9196C348.747 37.1596 346.667 38.7996 345.147 40.2796C344.387 41.0396 343.387 41.2796 342.547 40.7596C341.667 40.1996 341.787 39.0796 342.187 38.1596L354.827 10.7196C355.187 9.99957 355.867 9.55957 356.667 9.55957C357.427 9.55957 358.187 10.0396 358.467 10.7196L370.907 38.1596C371.347 39.1996 370.907 40.3596 369.907 40.8396ZM356.627 16.3596L348.947 32.7196C351.067 31.5196 353.867 30.4396 356.107 29.9996C358.267 29.5196 360.467 29.4396 362.667 29.6396L356.627 16.3596Z" fill="white"/>
<path d="M336.057 36.9996C337.177 36.9996 338.057 37.8796 338.057 38.9996C338.057 40.1196 337.177 40.9996 336.057 40.9996H316.938C315.858 40.9996 314.938 40.1196 314.938 38.9996V11.5596C314.938 10.4396 315.858 9.55957 316.938 9.55957H335.658C336.778 9.55957 337.658 10.4396 337.658 11.5596C337.658 12.6796 336.778 13.5596 335.658 13.5596H318.938V23.1996H333.738C334.858 23.1996 335.737 24.1196 335.737 25.1996C335.737 26.3196 334.858 27.1996 333.738 27.1996H318.938V36.9996H336.057Z" fill="white"/>
<path d="M310.903 32.9996C310.503 37.9596 306.783 40.9996 301.463 40.9996H287.703C287.183 40.9996 286.663 40.7996 286.303 40.4396C285.943 40.0396 285.703 39.5596 285.703 38.9996V11.5596C285.703 10.4396 286.623 9.55957 287.703 9.55957H299.543C304.783 9.55957 308.423 11.9196 309.103 16.7596C309.623 20.5196 308.023 22.8396 306.143 24.1996C308.783 25.1196 311.263 28.4796 310.903 32.9996ZM306.903 32.6396C307.303 28.7196 305.143 26.7996 301.223 26.7996H301.103L297.983 26.8396H297.943C296.863 26.8396 295.983 25.9196 295.943 24.8396C295.943 23.7196 296.863 22.8396 297.943 22.8396L300.983 22.7996C303.943 22.4796 305.503 20.4796 305.143 17.2396C304.823 14.6396 302.943 13.5596 299.543 13.5596H289.703V36.9596H301.463C304.703 36.9596 306.623 35.5996 306.903 32.6396Z" fill="white"/>
<path d="M250.069 41.6791C247.869 41.6791 245.709 41.2391 243.669 40.3591C241.709 39.5191 239.949 38.3591 238.429 36.8391C236.949 35.3191 235.749 33.5991 234.909 31.6391C234.069 29.6391 233.629 27.5191 233.629 25.3591C233.629 23.1591 234.069 21.0391 234.949 19.0391C235.789 17.1191 236.989 15.3591 238.509 13.8791C240.029 12.3591 241.789 11.1991 243.749 10.3591C245.789 9.5191 247.949 9.0791 250.189 9.0791C254.549 9.0791 258.629 10.7991 261.669 13.9191C263.149 15.3991 264.269 17.1591 265.069 19.0791C265.909 21.0791 266.309 23.1991 266.309 25.3591C266.309 27.5591 265.909 29.6791 265.069 31.6391C264.269 33.5991 263.109 35.3591 261.629 36.8391C258.549 39.9591 254.469 41.6791 250.069 41.6791ZM250.189 13.0791C248.509 13.0791 246.869 13.3991 245.309 14.0391C243.789 14.6791 242.469 15.5591 241.309 16.7191C240.149 17.8391 239.229 19.1591 238.629 20.6391C237.949 22.1191 237.629 23.7191 237.629 25.3591C237.629 26.9991 237.949 28.5591 238.589 30.0791C239.229 31.5591 240.109 32.8791 241.269 33.9991C243.629 36.3591 246.749 37.6791 250.069 37.6791C253.389 37.6791 256.469 36.3591 258.789 34.0391C259.909 32.9191 260.749 31.5991 261.389 30.1191C261.989 28.5991 262.309 26.9991 262.309 25.3591C262.309 22.0791 261.069 18.9991 258.829 16.7191C256.549 14.3591 253.469 13.0791 250.189 13.0791Z" fill="white"/>
<path d="M227.609 40.9996C226.529 40.9996 225.609 40.1196 225.609 38.9996V11.5596C225.609 10.4796 226.529 9.55957 227.609 9.55957C228.729 9.55957 229.609 10.4796 229.609 11.5596V38.9996C229.609 40.1196 228.729 40.9996 227.609 40.9996Z" fill="white"/>
<path d="M220.458 40.8396C219.538 41.2396 218.338 40.9196 217.778 39.8396L215.018 33.6796C212.418 33.0396 209.818 32.9996 207.298 33.5596C205.258 33.9596 203.258 34.7196 201.298 35.9196C199.298 37.1596 197.218 38.7996 195.698 40.2796C194.938 41.0396 193.938 41.2796 193.098 40.7596C192.218 40.1996 192.338 39.0796 192.738 38.1596L205.378 10.7196C205.738 9.99957 206.418 9.55957 207.218 9.55957C207.978 9.55957 208.738 10.0396 209.018 10.7196L221.458 38.1596C221.898 39.1996 221.458 40.3596 220.458 40.8396ZM207.178 16.3596L199.498 32.7196C201.618 31.5196 204.418 30.4396 206.658 29.9996C208.818 29.5196 211.018 29.4396 213.218 29.6396L207.178 16.3596Z" fill="white"/>
<path d="M186.602 40.9993C185.522 40.9993 184.562 40.0793 184.562 38.9993V18.7993L174.722 35.3193C174.362 35.8393 173.762 36.1193 173.122 36.1193C172.482 36.1193 171.882 35.8393 171.482 35.3193L161.602 18.7993V38.9993C161.602 40.0793 160.722 40.9993 159.602 40.9993C158.522 40.9993 157.602 40.0793 157.602 38.9993V11.4793C157.602 10.5993 158.162 9.83929 159.002 9.55929C159.802 9.27929 160.722 9.59929 161.242 10.2793L173.122 30.3193L184.962 10.2793C185.522 9.59929 186.402 9.27929 187.242 9.55929C188.042 9.83929 188.602 10.5993 188.602 11.4793V38.9993C188.602 40.0793 187.722 40.9993 186.602 40.9993Z" fill="white"/>
<path d="M127.341 3.22754H138.57V27.0722H130.486V10.567L120.204 27.0722H18.1287L7.84676 10.567V27.0722H3.97774e-06V3.22754H11.601L22.6004 20.6621H116.553L127.341 3.22754Z" fill="white"/>
<path d="M130.571 67.1553H138.509L133.716 74.4947L123.434 90.9999H14.9015L4.61949 74.4947L0.324223 67.1553H8.37376L19.3731 84.5899H119.783L130.571 67.1553Z" fill="white"/>
<path d="M138.029 49.4852C138.434 50.2631 138.637 51.1425 138.637 52.1233V52.563C138.637 57.1628 135.018 59.4289 127.78 59.4289H3.97774e-06V35.5166H127.577C131.061 35.5166 133.53 36.0239 134.985 37.0386C136.439 38.0871 137.149 39.3723 137.149 40.9958V41.4355C137.149 42.1796 137.014 42.8222 136.709 43.431C136.439 44.006 136.033 44.4795 135.526 44.8177C135.052 45.1898 134.612 45.4603 134.207 45.6633C133.801 45.8324 133.395 46.0015 132.989 46.103C133.564 46.2382 134.105 46.4074 134.646 46.6441C135.187 46.8809 135.796 47.2191 136.439 47.6588C137.115 48.0985 137.623 48.7073 138.029 49.4852ZM8.18499 40.5899V44.4795H126.191C128.085 44.4795 129.032 43.8369 129.032 42.5516V42.484C129.032 41.1987 128.085 40.5899 126.191 40.5899H8.18499ZM130.114 51.8866V51.7513C130.114 50.2969 129.032 49.5528 126.867 49.5528H8.18499V54.2541H126.867C128.085 54.2541 128.93 54.0174 129.404 53.5438C129.877 53.0703 130.114 52.4954 130.114 51.8866Z" fill="#CEEC58"/>
<path d="M113.006 14.206C113.006 14.206 106.645 14.206 98.7997 14.206C90.954 14.206 84.5938 14.206 84.5938 14.206C84.5938 6.36022 90.954 0 98.7997 0C106.645 0 113.006 6.36022 113.006 14.206Z" fill="#CEEC58"/>
</svg>
