<svg width="373" height="40" viewBox="0 0 373 40" fill="none" xmlns="http://www.w3.org/2000/svg">
<path d="M263.715 38.9502H242.435C241.117 38.9502 239.994 37.8763 239.994 36.5097V3.02659C239.994 1.65994 241.117 0.586137 242.435 0.586137C243.801 0.586137 244.875 1.65994 244.875 3.02659V34.0692H263.715C265.082 34.0692 266.156 35.143 266.156 36.5097C266.156 37.8763 265.082 38.9502 263.715 38.9502Z" fill="#10069F"/>
<path d="M219.972 39.5359C216.409 39.5359 213.334 38.8037 210.845 37.3394C208.697 36.1192 207.038 34.4109 205.818 32.2145C203.816 28.505 203.816 24.6491 203.816 23.38V3.02659C203.816 1.70875 204.939 0.586137 206.257 0.586137C207.624 0.586137 208.697 1.70875 208.697 3.02659V23.38C208.697 24.3562 208.697 27.2848 210.113 29.8716C210.894 31.2871 211.919 32.3609 213.285 33.1419C214.994 34.118 217.239 34.6549 219.972 34.6549C222.706 34.6549 224.951 34.118 226.659 33.1419C227.977 32.3609 229.051 31.2871 229.783 29.9205C231.198 27.2848 231.198 24.3562 231.198 23.38V3.02659C231.198 1.70875 232.321 0.586137 233.639 0.586137C235.005 0.586137 236.079 1.70875 236.079 3.02659V23.38C236.079 24.6491 236.079 28.5538 234.078 32.2145C232.272 35.5823 228.367 39.5359 219.972 39.5359Z" fill="#10069F"/>
<path d="M197.489 38.9013H170.888C169.96 38.9013 169.131 38.3644 168.691 37.4859C168.301 36.6561 168.398 35.6311 168.984 34.899L192.413 5.46705H171.669C170.351 5.46705 169.228 4.39325 169.228 3.02659C169.228 1.65994 170.351 0.586137 171.669 0.586137H197.489C198.416 0.586137 199.246 1.12304 199.685 1.95279C200.076 2.83136 199.978 3.80754 199.392 4.53968L175.964 34.0204H197.489C198.807 34.0204 199.929 35.0942 199.929 36.4609C199.929 37.7787 198.807 38.9013 197.489 38.9013Z" fill="#10069F"/>
<path d="M163.43 38.7549C162.308 39.243 160.844 38.8525 160.16 37.5347L156.792 30.0181C153.62 29.2371 150.447 29.1883 147.372 29.8716C144.883 30.3597 142.442 31.2871 140.051 32.7514C137.61 34.2645 135.072 36.2656 133.218 38.0716C132.29 38.999 131.07 39.2918 130.045 38.6573C128.971 37.974 129.118 36.6073 129.606 35.4847L145.029 2.0016C145.469 1.12304 146.298 0.586137 147.275 0.586137C148.202 0.586137 149.129 1.17185 149.471 2.0016L164.651 35.4847C165.188 36.7537 164.651 38.1692 163.43 38.7549ZM147.226 8.8837L137.854 28.8466C140.441 27.3824 143.858 26.0645 146.591 25.5276C149.227 24.9419 151.911 24.8443 154.596 25.0883L147.226 8.8837Z" fill="#10069F"/>
<path d="M109.904 39.7797C107.22 39.7797 104.584 39.2428 102.095 38.169C99.7032 37.144 97.5556 35.7285 95.7009 33.8738C93.8949 32.019 92.4306 29.9202 91.4056 27.5286C90.3807 25.0881 89.8438 22.5012 89.8438 19.8655C89.8438 17.181 90.3806 14.5941 91.4545 12.1537C92.4794 9.81085 93.9437 7.66324 95.7985 5.8573C97.6532 4.00255 99.8008 2.58708 102.192 1.56209C104.682 0.537099 107.317 0.000199405 110.051 0.000199405C115.371 0.000199405 120.349 2.09899 124.059 5.90611C125.865 7.71205 127.232 9.85965 128.208 12.2025C129.233 14.643 129.721 17.2298 129.721 19.8655C129.721 22.55 129.233 25.1369 128.208 27.5286C127.232 29.9202 125.816 32.0678 124.01 33.8738C120.252 37.6809 115.273 39.7797 109.904 39.7797ZM110.051 4.88112C108.001 4.88112 106 5.27159 104.096 6.05254C102.241 6.83348 100.631 7.90729 99.2151 9.32275C97.7996 10.6894 96.677 12.3001 95.9449 14.1061C95.1151 15.912 94.7247 17.8644 94.7247 19.8655C94.7247 21.8667 95.1151 23.7703 95.8961 25.625C96.677 27.431 97.7508 29.0417 99.1663 30.4083C102.046 33.2881 105.853 34.8988 109.904 34.8988C113.955 34.8988 117.714 33.2881 120.545 30.4571C121.911 29.0905 122.936 27.4798 123.717 25.6738C124.449 23.8191 124.84 21.8667 124.84 19.8655C124.84 15.8632 123.327 12.1049 120.594 9.32275C117.811 6.44301 114.053 4.88112 110.051 4.88112Z" fill="#10069F"/>
<path d="M83.4756 38.9502C82.1578 38.9502 81.0352 37.8763 81.0352 36.5097V3.02659C81.0352 1.70875 82.1578 0.586137 83.4756 0.586137C84.8423 0.586137 85.9161 1.70875 85.9161 3.02659V36.5097C85.9161 37.8763 84.8423 38.9502 83.4756 38.9502Z" fill="#10069F"/>
<path d="M75.7254 38.7549C74.6028 39.243 73.1385 38.8525 72.4552 37.5347L69.0873 30.0181C65.9147 29.2371 62.7421 29.1883 59.6672 29.8716C57.1779 30.3597 54.7374 31.2871 52.3458 32.7514C49.9053 34.2645 47.3672 36.2656 45.5125 38.0716C44.5851 38.999 43.3649 39.2918 42.3399 38.6573C41.2661 37.974 41.4125 36.6073 41.9006 35.4847L57.3243 2.0016C57.7636 1.12304 58.5933 0.586137 59.5695 0.586137C60.4969 0.586137 61.4243 1.17185 61.7659 2.0016L76.9456 35.4847C77.4825 36.7537 76.9456 38.1692 75.7254 38.7549ZM59.5207 8.8837L50.1494 28.8466C52.7362 27.3824 56.1529 26.0645 58.8862 25.5276C61.5219 24.9419 64.2064 24.8443 66.8909 25.0883L59.5207 8.8837Z" fill="#10069F"/>
<path d="M35.3867 38.9497C34.0688 38.9497 32.8974 37.8271 32.8974 36.5093V11.8606L20.8903 32.0188C20.451 32.6533 19.7189 32.995 18.938 32.995C18.157 32.995 17.4249 32.6533 16.9368 32.0188L4.88092 11.8606V36.5093C4.88092 37.8271 3.80712 38.9497 2.44046 38.9497C1.12261 38.9497 1.73882e-06 37.8271 1.73882e-06 36.5093V2.92854C1.73882e-06 1.85474 0.68333 0.927367 1.70832 0.585705C2.68451 0.244039 3.80712 0.634514 4.44164 1.46427L18.938 25.9177L33.3855 1.46427C34.0688 0.634514 35.1426 0.244039 36.1676 0.585705C37.1438 0.927367 37.8271 1.85474 37.8271 2.92854V36.5093C37.8271 37.8271 36.7533 38.9497 35.3867 38.9497Z" fill="#10069F"/>
<path d="M368.086 1.41036H372.869V11.5672H369.425V4.53665L365.046 11.5672H321.566L317.186 4.53665V11.5672H313.844V1.41036H318.785L323.471 8.83676H363.491L368.086 1.41036Z" fill="#10069F"/>
<path d="M369.462 28.6408H372.844L370.802 31.7671L366.422 38.7977H320.192L315.812 31.7671L313.982 28.6408H317.411L322.096 36.0672H364.867L369.462 28.6408Z" fill="#10069F"/>
<path d="M372.638 21.1133C372.811 21.4447 372.898 21.8193 372.898 22.2371V22.4243C372.898 24.3837 371.356 25.3489 368.273 25.3489H313.844V15.1633H368.186C369.67 15.1633 370.722 15.3794 371.342 15.8116C371.961 16.2582 372.264 16.8057 372.264 17.4972V17.6845C372.264 18.0014 372.206 18.2752 372.076 18.5345C371.961 18.7794 371.788 18.9811 371.572 19.1252C371.37 19.2836 371.183 19.3989 371.01 19.4853C370.837 19.5574 370.664 19.6294 370.492 19.6726C370.736 19.7303 370.967 19.8023 371.197 19.9031C371.428 20.004 371.687 20.1481 371.961 20.3354C372.249 20.5226 372.465 20.782 372.638 21.1133ZM317.33 17.3243V18.9811H367.596C368.403 18.9811 368.806 18.7074 368.806 18.1599V18.1311C368.806 17.5836 368.403 17.3243 367.596 17.3243H317.33ZM369.267 22.1362V22.0786C369.267 21.4591 368.806 21.1421 367.884 21.1421H317.33V23.1447H367.884C368.403 23.1447 368.763 23.0438 368.964 22.8421C369.166 22.6405 369.267 22.3955 369.267 22.1362Z" fill="#10069F"/>
<path d="M361.979 6.0865C361.979 6.0865 359.27 6.0865 355.928 6.0865C352.586 6.0865 349.877 6.0865 349.877 6.0865C349.877 2.74455 352.586 0.0353557 355.928 0.0353557C359.27 0.0353557 361.979 2.74455 361.979 6.0865Z" fill="#10069F"/>
<rect opacity="0.4" x="286.844" y="1.03536" width="2" height="38" fill="#10069F"/>
</svg>
